# xmcd
#
# Track frame offsets:
#	150
#	13571
#	27661
#	39210
#	51883
#	64622
#	78034
#	93462
#	106661
#	120906
#	132196
#	148011
#	160584
#	172616
#	184356
#	198016
#	210203
#	223284
#	234958
#	244448
#	256737
#	271759
#	284460
#	294965
#	307403
#	320032
#
# Disc length: 4424 seconds
#
# Revision: 0
# Processed by: cddbd v1.5.2PL0 Copyright (c) Steve Scherf et al.
# Submitted via: dBpowerAMP V4.0
#
DISCID=6411461a
DTITLE=Little Walter And The Kings Of The Blues Harmonica - Beale Street Breakdown
DYEAR=1900
DGENRE=Blues
TTITLE0=Deford Bailey - Pan-American Blues
TTITLE1=Deford Bailey - Dixie Flyer Blues
TTITLE2=Memphis Jug Band - K.C.Moan
TTITLE3=Memphis Jug Band - Gator Wobble
TTITLE4=Jed Davenport - Cow Cow Blues
TTITLE5=Jed Davenport - Beale Street Breakdown
TTITLE6=Noah Lewis - Chickasaw Special
TTITLE7=Noah Lewis - Devil In The Woodpile
TTITLE8=George Clarke - Prisoner Blues
TTITLE9=George Clarke - More Blues
TTITLE10=Sonny Boy Williamson - Decoration Blues
TTITLE11=Sonny Boy Williamson - Shake The Boogie
TTITLE12=Little Buddy Doyle - Hard Scufflin' Blues
TTITLE13=Little Buddy Doyle - She's Got Good Dry Goods
TTITLE14=Jazz Gillum - Reefer Head Woman
TTITLE15=Jazz Gillum - Key To The Highway
TTITLE16=Brownie McGhee - Born For Bad Luck
TTITLE17=Brownie McGhee - Million Lonesome Women
TTITLE18=Sonny Terry - Fox Chase
TTITLE19=Sonny Terry - Whoopin' The Blues
TTITLE20=Forest City Joe - Memory Of Sonny Boy
TTITLE21=Forest City Joe - A Woman On Every Street
TTITLE22=Snooky and Moody - Boogie
TTITLE23=Snooky Pryor - Judgement Day
TTITLE24=Joe Hill Louis - Boogie In The Park
TTITLE25=Joe Hill Louis - We All Gotta Go Sometime
EXTD=
EXTT0=
EXTT1=
EXTT2=
EXTT3=
EXTT4=
EXTT5=
EXTT6=
EXTT7=
EXTT8=
EXTT9=
EXTT10=
EXTT11=
EXTT12=
EXTT13=
EXTT14=
EXTT15=
EXTT16=
EXTT17=
EXTT18=
EXTT19=
EXTT20=
EXTT21=
EXTT22=
EXTT23=
EXTT24=
EXTT25=
PLAYORDER=
